<svg width="1024" height="1024" viewBox="0 0 1024 1024" fill="none" xmlns="http://www.w3.org/2000/svg">
  <defs>
    <!-- Left Pillar Red Gradient -->
    <linearGradient id="pillGrad" x1="240" y1="200" x2="440" y2="780" gradientUnits="userSpaceOnUse">
      <stop offset="0%" stop-color="#FF2438"/>
      <stop offset="35%" stop-color="#FF0D25"/>
      <stop offset="85%" stop-color="#E6001B"/>
      <stop offset="100%" stop-color="#CC0018"/>
    </linearGradient>

    <!-- Top Diagonal Ribbon Gradient -->
    <linearGradient id="topRibbonGrad" x1="420" y1="210" x2="800" y2="520" gradientUnits="userSpaceOnUse">
      <stop offset="0%" stop-color="#D9001A"/>
      <stop offset="50%" stop-color="#FF1A33"/>
      <stop offset="100%" stop-color="#FF263B"/>
    </linearGradient>

    <!-- Bottom Diagonal Ribbon Gradient -->
    <linearGradient id="bottomRibbonGrad" x1="330" y1="780" x2="810" y2="490" gradientUnits="userSpaceOnUse">
      <stop offset="0%" stop-color="#D60018"/>
      <stop offset="40%" stop-color="#F2001F"/>
      <stop offset="80%" stop-color="#FF1C35"/>
      <stop offset="100%" stop-color="#FF263B"/>
    </linearGradient>

    <!-- 3D Fold Crease Shadow under top cap -->
    <linearGradient id="creaseShadow" x1="380" y1="200" x2="520" y2="380" gradientUnits="userSpaceOnUse">
      <stop offset="0%" stop-color="#73000C"/>
      <stop offset="30%" stop-color="#990013"/>
      <stop offset="70%" stop-color="#CC001A" stop-opacity="0.8"/>
      <stop offset="100%" stop-color="#FF1028" stop-opacity="0"/>
    </linearGradient>

    <!-- Subtle Inner Bevel / Ambient Shading -->
    <linearGradient id="innerEdgeShadow" x1="680" y1="520" x2="430" y2="640" gradientUnits="userSpaceOnUse">
      <stop offset="0%" stop-color="#A80015" stop-opacity="0.6"/>
      <stop offset="60%" stop-color="#D9001C" stop-opacity="0.2"/>
      <stop offset="100%" stop-color="#FF0022" stop-opacity="0"/>
    </linearGradient>
  </defs>

  <mask id="cutoutMask">
    <rect width="1024" height="1024" fill="white" />
    <path d="M 444 396 C 444 382 458 375 470 382 L 652 490 C 664 497 664 513 652 520 L 470 628 C 458 635 444 628 444 614 Z" fill="black" />
  </mask>

  <!-- Re-rendered Ribbon -->
  <g mask="url(#cutoutMask)">
    <!-- Bottom Ribbon Loop -->
    <path d="M 335 785 C 275 785 240 735 240 675 L 240 335 C 240 275 275 225 335 225 C 380 225 415 250 440 290 L 780 475 C 815 495 815 525 780 545 L 435 735 C 405 768 370 785 335 785 Z" fill="url(#bottomRibbonGrad)" />
    <!-- Top Ribbon Band -->
    <path d="M 365 228 C 410 252 440 290 440 290 L 780 475 C 815 495 815 525 780 545 L 645 510 L 444 390 L 365 228 Z" fill="url(#topRibbonGrad)" />
    <!-- Top Fold Shadow overlay -->
    <path d="M 358 226 L 444 394 L 570 470 C 500 370 435 280 358 226 Z" fill="url(#creaseShadow)" />
    <!-- Inner Bottom Edge Ambient Shadow -->
    <path d="M 444 614 L 652 520 L 590 560 L 444 635 Z" fill="url(#innerEdgeShadow)" />
    <!-- Foreground Pill Capsule -->
    <path d="M 342 225 C 285 225 240 270 240 330 L 240 680 C 240 738 285 785 342 785 C 398 785 444 738 444 680 L 444 330 C 444 270 398 225 342 225 Z" fill="url(#pillGrad)" />
    <!-- Left Pillar Highlight -->
    <path d="M 342 225 C 285 225 240 270 240 330 L 240 680 C 240 738 285 785 342 785 C 358 785 372 778 384 765 C 295 750 262 690 262 640 L 262 360 C 262 300 300 245 375 230 C 364 227 353 225 342 225 Z" fill="#FFFFFF" opacity="0.12" />
  </g>
</svg>
